<?xml version="1.0" encoding="UTF-8" standalone="no"?>
<!DOCTYPE svg PUBLIC "-//W3C//DTD SVG 1.1//EN" "http://www.w3.org/Graphics/SVG/1.1/DTD/svg11.dtd">
<svg version="1.1" xmlns="http://www.w3.org/2000/svg" xmlns:xlink="http://www.w3.org/1999/xlink" preserveAspectRatio="xMidYMid meet" viewBox="0 0 640 640" width="700" height="700"><defs><path d="M436.26 423.61C468.46 398.19 524.11 377.28 603.21 360.9C593.6 424.18 573.83 466.55 543.89 488.02C513.94 509.49 461.12 525.87 385.41 537.17C387.11 486.89 404.06 449.03 436.26 423.61Z" id="biFc2OvkY"></path><path d="M206.58 392.46C143.87 312.17 140.48 270.43 136.25 222.97C133.42 191.33 146.13 148.23 174.38 93.67C316.19 212.08 386.53 305.46 385.4 373.82C384.27 442.18 366.75 494.44 332.86 530.6C290.48 492.04 248.39 445.99 206.58 392.46Z" id="c5UAZQR1JQ"></path><path d="M82.86 408.56C122.4 451.5 206.58 492.18 335.4 530.6L338.79 468.73C340.48 435.37 324.38 398.07 290.48 356.83C256.58 315.58 169.01 277.46 27.77 242.46C24.95 310.26 43.31 365.63 82.86 408.56Z" id="a34lwTERqQ"></path><path d="M273.83 468.65C261.19 454.8 247 438.95 231.25 421.1C181.25 364.43 152.75 315.93 145.75 275.6C216.22 300.54 267.13 329.89 298.5 363.66C303.18 368.71 307.43 373.86 311.25 379.1C340.58 419.43 348.25 469.93 334.25 530.6C321.46 519.41 301.32 498.76 273.83 468.65Z" id="a1iHatvTS"></path></defs><g><g><g><use xlink:href="#biFc2OvkY" opacity="1" fill="#865eb8" fill-opacity="1"></use></g><g><use xlink:href="#c5UAZQR1JQ" opacity="1" fill="#79c46e" fill-opacity="1"></use></g><g><use xlink:href="#a34lwTERqQ" opacity="1" fill="#389fbb" fill-opacity="1"></use></g><g><use xlink:href="#a1iHatvTS" opacity="1" fill="#0189b0" fill-opacity="1"></use></g></g></g></svg>