<?xml version="1.0" encoding="UTF-8" standalone="no"?>
<!DOCTYPE svg PUBLIC "-//W3C//DTD SVG 1.1//EN" "http://www.w3.org/Graphics/SVG/1.1/DTD/svg11.dtd">
<svg version="1.1" xmlns="http://www.w3.org/2000/svg" xmlns:xlink="http://www.w3.org/1999/xlink" preserveAspectRatio="xMidYMid meet" viewBox="0 0 640 640" width="640" height="640"><defs><path d="M436.26 423.61C468.46 398.19 524.11 377.28 603.21 360.9C593.6 424.18 573.83 466.55 543.89 488.02C513.94 509.49 461.12 525.87 385.41 537.17C387.11 486.89 404.06 449.03 436.26 423.61Z" id="a1GM0LUhOE"></path><path d="M206.58 392.46C143.87 312.17 140.48 270.43 136.25 222.97C133.42 191.33 146.13 148.23 174.38 93.67C316.19 212.08 386.53 305.46 385.4 373.82C384.27 442.18 366.75 494.44 332.86 530.6C290.48 492.04 248.39 445.99 206.58 392.46Z" id="fHkTHk2ru"></path><path d="M82.86 408.56C122.4 451.5 206.58 492.18 335.4 530.6L341.03 468.73C343.71 438.95 326.86 401.64 290.48 356.83C254.1 312.01 166.53 273.89 27.77 242.46C24.95 310.26 43.31 365.63 82.86 408.56Z" id="agDgUAk1d"></path><path d="M272.73 469.98C260.09 456.13 245.9 438.95 230.15 421.1C180.15 364.43 151.98 315.93 145.65 275.6C195.91 288.5 244.05 315.52 290.06 356.66C336.08 397.81 350.77 455.78 334.15 530.6C320.69 520.3 300.22 500.09 272.73 469.98Z" id="f4vKfcQN1a"></path></defs><g><g><g><use xlink:href="#a1GM0LUhOE" opacity="1" fill="#eee8f6" fill-opacity="1"></use></g><g><use xlink:href="#fHkTHk2ru" opacity="1" fill="#eaf9e8" fill-opacity="1"></use></g><g><use xlink:href="#agDgUAk1d" opacity="1" fill="#e4f9ff" fill-opacity="1"></use></g><g><use xlink:href="#f4vKfcQN1a" opacity="1" fill="#cbf3ff" fill-opacity="1"></use></g></g></g></svg>