<?xml version="1.0" encoding="UTF-8" standalone="no"?>
<!DOCTYPE svg PUBLIC "-//W3C//DTD SVG 1.1//EN" "http://www.w3.org/Graphics/SVG/1.1/DTD/svg11.dtd">
<svg version="1.1" xmlns="http://www.w3.org/2000/svg" xmlns:xlink="http://www.w3.org/1999/xlink" preserveAspectRatio="xMidYMid meet" viewBox="0 0 640 640" width="700" height="700"><defs><path d="M450.38 407.53C485.81 379.71 545.06 359.01 628.12 345.43C612.76 419.96 588.7 468.86 555.94 492.15C523.19 515.44 467.25 530.98 388.12 538.76C394.2 479.1 414.95 435.36 450.38 407.53Z" id="b1JPVYJGxG"></path><path d="M58.98 395.69C98.53 440.78 182.71 483.49 311.52 523.82L317.16 458.87C319.84 427.59 302.99 388.43 266.61 341.37C230.23 294.31 142.66 254.29 3.9 221.29C1.07 292.48 19.43 350.61 58.98 395.69Z" id="a3nm9HBtuS"></path><path d="M436.26 423.61C468.46 398.19 524.11 377.28 603.21 360.9C593.6 424.18 573.83 466.55 543.89 488.02C513.94 509.49 461.12 525.87 385.41 537.17C387.11 486.89 404.06 449.03 436.26 423.61Z" id="c3H4jiQrgQ"></path><path d="M201.08 373.29C131.99 289.73 128.25 246.29 123.58 196.9C120.47 163.97 134.48 119.12 165.6 62.34C321.84 185.56 399.34 282.74 398.1 353.89C396.85 425.03 377.56 479.42 340.21 517.05C293.52 476.92 247.15 429 201.08 373.29Z" id="a6qLGAcyC"></path><path d="M206.58 392.46C143.87 312.17 140.48 270.43 136.25 222.97C133.42 191.33 146.13 148.23 174.38 93.67C316.19 212.08 386.53 305.46 385.4 373.82C384.27 442.18 366.75 494.44 332.86 530.6C290.48 492.04 248.39 445.99 206.58 392.46Z" id="f8H2kHsL"></path><path d="M82.86 408.56C122.4 451.5 206.58 492.18 335.4 530.6L341.03 468.73C343.71 438.95 326.86 401.64 290.48 356.83C254.1 312.01 166.53 273.89 27.77 242.46C24.95 310.26 43.31 365.63 82.86 408.56Z" id="gW3H598Nf"></path><path d="M272.73 469.98C260.09 456.13 245.9 438.95 230.15 421.1C180.15 364.43 151.98 315.93 145.65 275.6C195.91 288.5 244.05 315.52 290.06 356.66C336.08 397.81 350.77 455.78 334.15 530.6C320.69 520.3 300.22 500.09 272.73 469.98Z" id="bnynUvgII"></path></defs><g><g><g><use xlink:href="#b1JPVYJGxG" opacity="0.18" fill="#cbc2dd" fill-opacity="1"></use></g><g><use xlink:href="#a3nm9HBtuS" opacity="0.23" fill="#b1ceed" fill-opacity="1"></use></g><g><use xlink:href="#c3H4jiQrgQ" opacity="0.56" fill="#e9e1f8" fill-opacity="1"></use></g><g><use xlink:href="#a6qLGAcyC" opacity="0.17" fill="#c3e0c5" fill-opacity="1"></use></g><g><use xlink:href="#f8H2kHsL" opacity="0.58" fill="#dbf6dd" fill-opacity="1"></use></g><g><use xlink:href="#gW3H598Nf" opacity="0.68" fill="#d9e9fb" fill-opacity="1"></use></g><g><use xlink:href="#bnynUvgII" opacity="1" fill="#cbe4ff" fill-opacity="1"></use></g></g></g></svg>